<svg width="82" height="91" viewBox="0 0 82 91" fill="none" xmlns="http://www.w3.org/2000/svg">
<ellipse cx="40.8773" cy="33.75" rx="33.6585" ry="33.75" fill="white"/>
<path d="M33.1586 24.7945L29.3715 20.7646C17.9948 31.9862 24.6312 42.8513 29.3715 46.8812L33.1586 42.8513C26.5428 35.7836 30.402 27.8686 33.1586 24.7945Z" fill="#FBE20B"/>
<path d="M36.7483 28.437L33.1331 24.7559C26.5244 32.8156 30.0802 39.984 33.1329 42.8514L36.495 39.3641C33.5581 35.2567 34.8863 30.462 36.7483 28.437Z" fill="#FEB300"/>
<ellipse cx="42.1026" cy="34.0165" rx="8.19243" ry="8.2147" fill="#1916BF"/>
<path d="M36.4243 28.0879C38.2519 30.039 40.4838 34.9704 36.0975 39.7512C32.2489 35.3715 34.067 30.0641 36.4243 28.0879Z" fill="#FF7D00"/>
<path d="M42.4225 36.1126C42.0119 36.1126 41.6439 36.046 41.3185 35.9126C40.9932 35.7793 40.7319 35.582 40.5345 35.3206C40.3425 35.0593 40.2412 34.7446 40.2305 34.3766H41.6865C41.7079 34.5846 41.7799 34.7446 41.9025 34.8566C42.0252 34.9633 42.1852 35.0166 42.3825 35.0166C42.5852 35.0166 42.7452 34.9713 42.8625 34.8806C42.9799 34.7846 43.0385 34.654 43.0385 34.4886C43.0385 34.35 42.9905 34.2353 42.8945 34.1446C42.8039 34.054 42.6892 33.9793 42.5505 33.9206C42.4172 33.862 42.2252 33.7953 41.9745 33.7206C41.6119 33.6086 41.3159 33.4966 41.0865 33.3846C40.8572 33.2726 40.6599 33.1073 40.4945 32.8886C40.3292 32.67 40.2465 32.3846 40.2465 32.0326C40.2465 31.51 40.4359 31.102 40.8145 30.8086C41.1932 30.51 41.6865 30.3606 42.2945 30.3606C42.9132 30.3606 43.4119 30.51 43.7905 30.8086C44.1692 31.102 44.3719 31.5126 44.3985 32.0406H42.9185C42.9079 31.8593 42.8412 31.718 42.7185 31.6166C42.5959 31.51 42.4385 31.4566 42.2465 31.4566C42.0812 31.4566 41.9479 31.502 41.8465 31.5926C41.7452 31.678 41.6945 31.8033 41.6945 31.9686C41.6945 32.15 41.7799 32.2913 41.9505 32.3926C42.1212 32.494 42.3879 32.6033 42.7505 32.7206C43.1132 32.8433 43.4065 32.9606 43.6305 33.0726C43.8599 33.1846 44.0572 33.3473 44.2225 33.5606C44.3879 33.774 44.4705 34.0486 44.4705 34.3846C44.4705 34.7046 44.3879 34.9953 44.2225 35.2566C44.0625 35.518 43.8279 35.726 43.5185 35.8806C43.2092 36.0353 42.8439 36.1126 42.4225 36.1126Z" fill="white"/>
<path fill-rule="evenodd" clip-rule="evenodd" d="M10.1871 22.9072C9.87802 21.086 11.2378 14.522 21.0069 6.7103C30.776 -1.10141 44.1414 -0.161111 49.603 1.2855C52.746 1.85382 60.145 4.4164 64.5967 10.1202C69.0485 15.824 66.4516 19.1098 64.5967 20.0398L57.2545 24.6896C56.8165 24.9738 55.6623 25.3716 54.5494 24.6896C53.0294 21.8739 47.9027 16.4904 39.5557 17.4824C29.122 18.7224 24.7166 27.0146 24.4847 33.2918H15.2109C15.3654 32.801 15.3654 31.4474 14.1288 29.9594C10.4809 26.6116 10.1871 23.5272 10.1871 22.9072ZM10.1481 44.0025C9.8387 45.8808 11.1998 52.6506 20.9782 60.7072C30.7566 68.7638 44.1348 67.794 49.6016 66.302C52.7476 65.7159 60.1536 63.073 64.6096 57.1904C69.0656 51.3078 66.4663 47.9189 64.6096 46.9598L57.2603 42.1642C56.8219 41.8711 55.6667 41.4609 54.5527 42.1642C53.0313 45.0682 47.8997 50.6204 39.5447 49.5974C29.101 48.3186 24.6914 39.7664 24.4593 33.2924H15.1766C15.3314 33.7986 15.3314 35.1946 14.0936 36.7292C10.4421 40.182 10.1481 43.3631 10.1481 44.0025Z" fill="url(#paint0_linear_1079_27)"/>
<path d="M3.262 74.09V76.078H6.468V77.926H3.262V80.082H6.888V82H0.868V72.172H6.888V74.09H3.262ZM12.7962 79.97V82H11.5782C10.7102 82 10.0336 81.79 9.54822 81.37C9.06289 80.9407 8.82022 80.2453 8.82022 79.284V76.176H7.86822V74.188H8.82022V72.284H11.2142V74.188H12.7822V76.176H11.2142V79.312C11.2142 79.5453 11.2702 79.7133 11.3822 79.816C11.4942 79.9187 11.6809 79.97 11.9422 79.97H12.7962ZM18.9317 74.104C19.8277 74.104 20.5464 74.4027 21.0877 75C21.6291 75.588 21.8997 76.4 21.8997 77.436V82H19.5197V77.758C19.5197 77.2353 19.3844 76.8293 19.1137 76.54C18.8431 76.2507 18.4791 76.106 18.0217 76.106C17.5644 76.106 17.2004 76.2507 16.9297 76.54C16.6591 76.8293 16.5237 77.2353 16.5237 77.758V82H14.1297V71.64H16.5237V75.238C16.7664 74.8927 17.0977 74.6173 17.5177 74.412C17.9377 74.2067 18.4091 74.104 18.9317 74.104ZM23.0873 78.08C23.0873 77.2773 23.2366 76.5727 23.5353 75.966C23.8433 75.3593 24.2586 74.8927 24.7813 74.566C25.304 74.2393 25.8873 74.076 26.5313 74.076C27.082 74.076 27.5626 74.188 27.9733 74.412C28.3933 74.636 28.7153 74.93 28.9393 75.294V74.188H31.3333V82H28.9393V80.894C28.706 81.258 28.3793 81.552 27.9593 81.776C27.5486 82 27.068 82.112 26.5173 82.112C25.8826 82.112 25.304 81.9487 24.7813 81.622C24.2586 81.286 23.8433 80.8147 23.5353 80.208C23.2366 79.592 23.0873 78.8827 23.0873 78.08ZM28.9393 78.094C28.9393 77.4967 28.7713 77.0253 28.4353 76.68C28.1086 76.3347 27.7073 76.162 27.2313 76.162C26.7553 76.162 26.3493 76.3347 26.0133 76.68C25.6866 77.016 25.5233 77.4827 25.5233 78.08C25.5233 78.6773 25.6866 79.1533 26.0133 79.508C26.3493 79.8533 26.7553 80.026 27.2313 80.026C27.7073 80.026 28.1086 79.8533 28.4353 79.508C28.7713 79.1627 28.9393 78.6913 28.9393 78.094ZM37.8253 74.104C38.7399 74.104 39.4679 74.4027 40.0093 75C40.5599 75.588 40.8353 76.4 40.8353 77.436V82H38.4553V77.758C38.4553 77.2353 38.3199 76.8293 38.0493 76.54C37.7786 76.2507 37.4146 76.106 36.9573 76.106C36.4999 76.106 36.1359 76.2507 35.8653 76.54C35.5946 76.8293 35.4593 77.2353 35.4593 77.758V82H33.0653V74.188H35.4593V75.224C35.7019 74.8787 36.0286 74.608 36.4393 74.412C36.8499 74.2067 37.3119 74.104 37.8253 74.104ZM49.0217 82.098C48.303 82.098 47.659 81.9813 47.0897 81.748C46.5203 81.5147 46.063 81.1693 45.7177 80.712C45.3817 80.2547 45.2043 79.704 45.1857 79.06H47.7337C47.771 79.424 47.897 79.704 48.1117 79.9C48.3263 80.0867 48.6063 80.18 48.9517 80.18C49.3063 80.18 49.5863 80.1007 49.7917 79.942C49.997 79.774 50.0997 79.5453 50.0997 79.256C50.0997 79.0133 50.0157 78.8127 49.8477 78.654C49.689 78.4953 49.4883 78.3647 49.2457 78.262C49.0123 78.1593 48.6763 78.0427 48.2377 77.912C47.603 77.716 47.085 77.52 46.6837 77.324C46.2823 77.128 45.937 76.8387 45.6477 76.456C45.3583 76.0733 45.2137 75.574 45.2137 74.958C45.2137 74.0433 45.545 73.3293 46.2077 72.816C46.8703 72.2933 47.7337 72.032 48.7977 72.032C49.8803 72.032 50.753 72.2933 51.4157 72.816C52.0783 73.3293 52.433 74.048 52.4797 74.972H49.8897C49.871 74.6547 49.7543 74.4073 49.5397 74.23C49.325 74.0433 49.0497 73.95 48.7137 73.95C48.4243 73.95 48.191 74.0293 48.0137 74.188C47.8363 74.3373 47.7477 74.5567 47.7477 74.846C47.7477 75.1633 47.897 75.4107 48.1957 75.588C48.4943 75.7653 48.961 75.9567 49.5957 76.162C50.2303 76.3767 50.7437 76.582 51.1357 76.778C51.537 76.974 51.8823 77.2587 52.1717 77.632C52.461 78.0053 52.6057 78.486 52.6057 79.074C52.6057 79.634 52.461 80.1427 52.1717 80.6C51.8917 81.0573 51.481 81.4213 50.9397 81.692C50.3983 81.9627 49.759 82.098 49.0217 82.098ZM58.8809 74.104C59.7769 74.104 60.4956 74.4027 61.0369 75C61.5783 75.588 61.8489 76.4 61.8489 77.436V82H59.4689V77.758C59.4689 77.2353 59.3336 76.8293 59.0629 76.54C58.7923 76.2507 58.4283 76.106 57.9709 76.106C57.5136 76.106 57.1496 76.2507 56.8789 76.54C56.6083 76.8293 56.4729 77.2353 56.4729 77.758V82H54.0789V71.64H56.4729V75.238C56.7156 74.8927 57.0469 74.6173 57.4669 74.412C57.8869 74.2067 58.3583 74.104 58.8809 74.104ZM67.0685 82.112C66.3032 82.112 65.6125 81.9487 64.9965 81.622C64.3899 81.2953 63.9092 80.8287 63.5545 80.222C63.2092 79.6153 63.0365 78.906 63.0365 78.094C63.0365 77.2913 63.2139 76.5867 63.5685 75.98C63.9232 75.364 64.4085 74.8927 65.0245 74.566C65.6405 74.2393 66.3312 74.076 67.0965 74.076C67.8619 74.076 68.5525 74.2393 69.1685 74.566C69.7845 74.8927 70.2699 75.364 70.6245 75.98C70.9792 76.5867 71.1565 77.2913 71.1565 78.094C71.1565 78.8967 70.9745 79.606 70.6105 80.222C70.2559 80.8287 69.7659 81.2953 69.1405 81.622C68.5245 81.9487 67.8339 82.112 67.0685 82.112ZM67.0685 80.04C67.5259 80.04 67.9132 79.872 68.2305 79.536C68.5572 79.2 68.7205 78.7193 68.7205 78.094C68.7205 77.4687 68.5619 76.988 68.2445 76.652C67.9365 76.316 67.5539 76.148 67.0965 76.148C66.6299 76.148 66.2425 76.316 65.9345 76.652C65.6265 76.9787 65.4725 77.4593 65.4725 78.094C65.4725 78.7193 65.6219 79.2 65.9205 79.536C66.2285 79.872 66.6112 80.04 67.0685 80.04ZM74.8206 75.294C75.0539 74.93 75.3759 74.636 75.7866 74.412C76.1973 74.188 76.6779 74.076 77.2286 74.076C77.8726 74.076 78.4559 74.2393 78.9786 74.566C79.5013 74.8927 79.9119 75.3593 80.2106 75.966C80.5186 76.5727 80.6726 77.2773 80.6726 78.08C80.6726 78.8827 80.5186 79.592 80.2106 80.208C79.9119 80.8147 79.5013 81.286 78.9786 81.622C78.4559 81.9487 77.8726 82.112 77.2286 82.112C76.6873 82.112 76.2066 82 75.7866 81.776C75.3759 81.552 75.0539 81.2627 74.8206 80.908V85.724H72.4266V74.188H74.8206V75.294ZM78.2366 78.08C78.2366 77.4827 78.0686 77.016 77.7326 76.68C77.4059 76.3347 76.9999 76.162 76.5146 76.162C76.0386 76.162 75.6326 76.3347 75.2966 76.68C74.9699 77.0253 74.8066 77.4967 74.8066 78.094C74.8066 78.6913 74.9699 79.1627 75.2966 79.508C75.6326 79.8533 76.0386 80.026 76.5146 80.026C76.9906 80.026 77.3966 79.8533 77.7326 79.508C78.0686 79.1533 78.2366 78.6773 78.2366 78.08Z" fill="#1908DD"/>
<defs>
<linearGradient id="paint0_linear_1079_27" x1="65.3837" y1="48.718" x2="13.9824" y2="43.6231" gradientUnits="userSpaceOnUse">
<stop stop-color="#22DBDE" stop-opacity="0.96"/>
<stop offset="1" stop-color="#A649FC" stop-opacity="0.89"/>
</linearGradient>
</defs>
</svg>
