<svg width="27" height="23" viewBox="0 0 27 23" fill="none" xmlns="http://www.w3.org/2000/svg">
<path fill-rule="evenodd" clip-rule="evenodd" d="M24.1185 1.1438C23.7448 0.77596 23.1388 0.77596 22.765 1.1438L20.1007 3.76578C18.0426 2.35192 15.7444 1.60225 13.3766 1.60225C10.7518 1.60225 8.20505 2.52105 5.99876 4.23948C3.81912 5.92651 2.00246 8.35956 0.693762 11.3425C0.5895 11.5802 0.58921 11.8496 0.692963 12.0874C1.8231 14.6784 3.34108 16.852 5.15117 18.4782L2.6354 20.9541L2.54273 21.0597C2.26472 21.4285 2.29561 21.9518 2.6354 22.2862C3.00917 22.654 3.61517 22.654 3.98893 22.2862L24.1185 2.47586L24.2112 2.37022C24.4892 2.00148 24.4583 1.4782 24.1185 1.1438ZM6.50632 17.1446L9.23449 14.4597C8.68368 13.6618 8.38177 12.7167 8.38177 11.7165C8.38177 8.99479 10.6121 6.79842 13.3765 6.79842C14.3874 6.79842 15.3579 7.09764 16.167 7.63717L18.7224 5.12224C17.0537 4.04617 15.2352 3.48608 13.3766 3.48608C11.1947 3.48608 9.06319 4.25508 7.18439 5.71843C5.38527 7.11095 3.84325 9.11262 2.67893 11.5879L2.61938 11.7168L2.67726 11.843C3.68916 14.0054 4.99304 15.8034 6.50632 17.1446ZM14.7719 9.01007C14.3487 8.79788 13.8711 8.68225 13.3765 8.68225C11.6695 8.68225 10.296 10.0349 10.296 11.7165C10.296 12.2063 10.4117 12.6714 10.6287 13.0875L14.7719 9.01007ZM17.3793 11.4799L17.5087 11.4941C18.0289 11.5862 18.3748 12.0759 18.2813 12.5878C17.9145 14.5947 16.3107 16.1763 14.2727 16.5403C13.7526 16.6333 13.2545 16.2937 13.1601 15.7818C13.0656 15.27 13.4107 14.7797 13.9308 14.6868C15.1827 14.4632 16.1719 13.4877 16.3973 12.2544C16.4831 11.7851 16.9083 11.4599 17.3793 11.4799ZM22.3056 7.01168C22.7279 6.69883 23.3279 6.78214 23.6458 7.19776C24.572 8.40873 25.3814 9.7989 26.0592 11.3414C26.1639 11.5797 26.164 11.8501 26.0594 12.0885C23.4086 18.1325 18.6527 21.8276 13.3766 21.8276C12.1755 21.8276 10.987 21.6364 9.84243 21.2605C9.34103 21.0958 9.07022 20.5623 9.23756 20.0688C9.40489 19.5754 9.94702 19.3089 10.4484 19.4735C11.3982 19.7855 12.3821 19.9438 13.3766 19.9438C17.5937 19.9438 21.5195 17.0573 23.9336 12.1358L24.1323 11.7167L24.0647 11.5677C23.5789 10.5389 23.0298 9.59528 22.424 8.7469L22.1165 8.33069C21.7986 7.91507 21.8832 7.32453 22.3056 7.01168Z" fill="#029BC2"/>
</svg>
